<svg xmlns="http://www.w3.org/2000/svg" version="1.1" xmlns:xlink="http://www.w3.org/1999/xlink" xmlns:svgjs="http://svgjs.dev/svgjs" width="100%" height="100%" viewBox="0 0 1000 600"><rect width="1000" height="600" x="0" y="0" fill="#358597"/><g><rect width="333.3333333333333" height="333.3333333333333" rx="13.333333333333334" ry="13.333333333333334" y="214.8567878074124" fill="#f4a896" transform="matrix(0.6488969753412879,0,0,0.648896975341288,0,52.43057498286588)" x="192.63458251953122"/><path d="M333.7200862601257 306.52343769272034L333.7200862601257 440.34840709652235L404.7788887134255 440.34840709652235L404.7788887134255 456.5234417168199L313.82362157320176 456.5234417168199L313.82362157320176 306.52343769272034L333.7200862601257 306.52343769272034Z " fill="#358597" transform="matrix(0.6488969753412879,0,0,0.648896975341288,0,52.43057498286588)"/><path d="M627.9209959979934 314.2291050706975L627.9209959979934 439.46676328735646L694.4200809937013 439.46676328735646L694.4200809937013 454.60387459359595L609.3012521991951 454.60387459359595L609.3012521991951 314.2291050706975L627.9209959979934 314.2291050706975ZM732.125747743845 350.2894336353803L732.125747743845 454.60387459359595L714.3012507346862 454.60387459359595L714.3012507346862 350.2894336353803L732.125747743845 350.2894336353803ZM712.8478686708625 322.6203298165476L712.8478686708625 322.6203298165476Q712.8478686708625 318.2876059281675 715.5078320706907 315.298574891247Q718.140373167428 312.30954385432653 723.3506107547206 312.30954385432653Q728.5608483420132 312.30954385432653 731.2482340449326 315.298574891247Q733.9630420509429 318.2876059281675 733.9630420509429 322.6203298165476Q733.9630420509429 326.9530537049278 731.2482340449326 329.85981783257523Q728.5608483420132 332.7391596571316 723.3506107547206 332.7391596571316Q718.140373167428 332.7391596571316 715.5078320706907 329.85981783257523Q712.8478686708625 326.9530537049278 712.8478686708625 322.6203298165476ZM768.569988551802 350.2894336353803L795.0873556408121 430.417403267322L820.919165152547 350.2894336353803L839.12757440498 350.2894336353803L801.7235529888375 454.60387459359595L788.1495129587857 454.60387459359595L750.361579299369 350.2894336353803L768.569988551802 350.2894336353803ZM898.3323267784783 456.52343580996694L898.3323267784783 456.52343580996694Q877.1348864891248 456.52343580996694 863.8076471868922 442.592905839732Q850.5078301877506 428.66237586949717 850.5078301877506 405.3534182421356L850.5078301877506 405.3534182421356L850.5078301877506 402.06274187121403Q850.5078301877506 386.5417183217003 856.4310476554095 374.33879344619925Q862.3816874261595 362.16329087378926 873.0215410254727 355.2528704948538Q883.688816927877 348.3698724190094 896.1111202281062 348.3698724190094L896.1111202281062 348.3698724190094Q916.4584691216382 348.3698724190094 927.7290356920448 361.75195632742395Q939.0270245655424 375.16146253892964 939.0270245655424 400.14318065484304L939.0270245655424 400.14318065484304L939.0270245655424 407.5472024894167L868.3597495000004 407.5472024894167Q868.7436617432746 422.9859591296573 877.354264913853 432.474075999148Q885.9922903875222 441.9621928686387 899.2921073866638 441.9621928686387L899.2921073866638 441.9621928686387Q908.7528019530635 441.9621928686387 915.3067323918158 438.1230704358968Q921.860662830568 434.2565257000639 926.7692550838594 427.89455138294875L926.7692550838594 427.89455138294875L937.6559094109919 436.395465341163Q924.5480485334873 456.52343580996694 898.3323267784783 456.52343580996694ZM896.1111202281062 363.0133822696106L896.1111202281062 363.0133822696106Q885.3067328102469 363.0133822696106 877.9849778849463 370.8835832567315Q870.6632229596456 378.7263619407614 868.9356178649118 392.9036926388154L868.9356178649118 392.9036926388154L921.1751052532926 392.9036926388154L921.1751052532926 391.55999978735576Q920.4072807667442 377.958537454213 913.853350327992 370.4996710134574Q907.2994198892397 363.0133822696106 896.1111202281062 363.0133822696106ZM1047.0983210472273 410.07005437378996L1065.6906425429343 410.07005437378996Q1063.0855237492879 432.336964483693 1049.264682991417 444.43020014683Q1035.4164199304555 456.52343580996694 1012.4639522432769 456.52343580996694L1012.4639522432769 456.52343580996694Q987.5919233397274 456.52343580996694 972.619345852034 438.69893880080815Q957.6193460612496 420.87444179164925 957.6193460612496 390.98413142244453L957.6193460612496 390.98413142244453L957.6193460612496 377.4649359985748Q957.6193460612496 357.9128338946821 964.6120333494581 343.0499456193528Q971.6047206376666 328.21447964711444 984.41093618117 320.2620117507205Q997.2445740277643 312.30954385432653 1014.1092904287377 312.30954385432653L1014.1092904287377 312.30954385432653Q1036.4858897510048 312.30954385432653 1049.9776628717837 324.78669176073765Q1063.469435992562 337.2638396671489 1065.6906425429343 359.3662159585058L1065.6906425429343 359.3662159585058L1047.0983210472273 359.3662159585058Q1044.6851583752177 342.5837664668055 1036.62300126646 335.0700554198678Q1028.588266460793 327.52892206983904 1014.1092904287377 327.52892206983904L1014.1092904287377 327.52892206983904Q996.367060328852 327.52892206983904 986.3030750944498 340.6642052504345Q976.2390898600479 353.77206612793907 976.2390898600479 377.958537454213L976.2390898600479 377.958537454213L976.2390898600479 391.55999978735576Q976.2390898600479 414.40277826217016 985.7820513357206 427.89455138294875Q995.3250128113934 441.38632450372745 1012.4639522432769 441.38632450372745L1012.4639522432769 441.38632450372745Q1027.9027088835173 441.38632450372745 1036.1568221139128 434.393637215519Q1044.3835130412167 427.4283722304016 1047.0983210472273 410.07005437378996L1047.0983210472273 410.07005437378996ZM1106.001428086724 306.5234379021226L1106.001428086724 362.93111536033757Q1117.847863022042 348.3698724190094 1136.8515190641142 348.3698724190094L1136.8515190641142 348.3698724190094Q1169.922816591877 348.3698724190094 1170.197039622787 385.6642046227879L1170.197039622787 385.6642046227879L1170.197039622787 454.60387459359595L1152.372542613628 454.60387459359595L1152.372542613628 385.5819377135148Q1152.2628534012642 374.28394884001716 1147.2171496325177 368.90917743417856Q1142.1440235606801 363.5069837252489 1131.449325355185 363.5069837252489L1131.449325355185 363.5069837252489Q1122.7564552753333 363.5069837252489 1116.2025248365812 368.1139306445392Q1109.6485943978291 372.74829986692043 1106.001428086724 380.26201091385815L1106.001428086724 380.26201091385815L1106.001428086724 454.60387459359595L1088.1495087744743 454.60387459359595L1088.1495087744743 306.5234379021226L1106.001428086724 306.5234379021226ZM1279.9959411992054 454.60387459359595L1261.2939304911342 454.60387459359595Q1259.7582815180376 451.50515434431145 1258.798500909852 443.6075310540996L1258.798500909852 443.6075310540996Q1246.348775306532 456.52343580996694 1229.1001466622843 456.52343580996694L1229.1001466622843 456.52343580996694Q1213.6888123251347 456.52343580996694 1203.7893609092785 447.8031434270247Q1193.9173317965137 439.0828510440823 1193.9173317965137 425.6733448325766L1193.9173317965137 425.6733448325766Q1193.9173317965137 409.38449679651467 1206.3122127936517 400.36255907957116Q1218.6796714876991 391.3680436657187 1241.1659600223302 391.3680436657187L1241.1659600223302 391.3680436657187L1258.496855575851 391.3680436657187L1258.496855575851 383.16877504150557Q1258.496855575851 373.81776968747 1252.902705745284 368.27846446308524Q1247.3359782178086 362.7391592387005 1236.4219015875851 362.7391592387005L1236.4219015875851 362.7391592387005Q1226.878940111912 362.7391592387005 1220.434698885524 367.53806227962787Q1213.9630353560447 372.3643876236463 1213.9630353560447 379.21996339639963L1213.9630353560447 379.21996339639963L1196.0288491345218 379.21996339639963Q1196.0288491345218 371.4046070154608 1201.5681543589067 364.13769669634223Q1207.1348818863821 356.8433640741325 1216.6229987558731 352.59290709502545Q1226.1111156253637 348.3698724190094 1237.4913714081345 348.3698724190094L1237.4913714081345 348.3698724190094Q1255.5078245389304 348.3698724190094 1265.7363435918783 357.3643878328618Q1275.9648626448266 366.3863255498053 1276.3487748881007 382.2089944333202L1276.3487748881007 382.2089944333202L1276.3487748881007 430.22544714568494Q1276.3487748881007 444.5673116622851 1279.9959411992054 453.0682256204992L1279.9959411992054 453.0682256204992L1279.9959411992054 454.60387459359595ZM1231.7052654559307 441.0024122604533L1231.7052654559307 441.0024122604533Q1240.0964902017809 441.0024122604533 1247.6102012487186 436.6696883720731Q1255.1239122956563 432.336964483693 1258.496855575851 425.3991218016665L1258.496855575851 425.3991218016665L1258.496855575851 403.9823030875849L1244.538903302525 403.9823030875849Q1211.7418288056724 403.9823030875849 1211.7418288056724 423.1779152512944L1211.7418288056724 423.1779152512944Q1211.7418288056724 431.5691399971446 1217.3359786362394 436.28577612879894Q1222.9301284668063 441.0024122604533 1231.7052654559307 441.0024122604533ZM1310.6540760549588 325.0334924885568L1328.5059953672085 325.0334924885568L1328.5059953672085 350.2894336353803L1347.9758305618284 350.2894336353803L1347.9758305618284 364.08285209016015L1328.5059953672085 364.08285209016015L1328.5059953672085 428.77206508186123Q1328.5059953672085 435.0243501866123 1331.1111141608549 438.1779150420789Q1333.7162329545013 441.30405759445443 1339.9685180592523 441.30405759445443L1339.9685180592523 441.30405759445443Q1343.0672383085366 441.30405759445443 1348.4420097143752 440.15232086463186L1348.4420097143752 440.15232086463186L1348.4420097143752 454.60387459359595Q1341.4219001230758 456.52343580996694 1334.7582804719596 456.52343580996694L1334.7582804719596 456.52343580996694Q1322.8021563242778 456.52343580996694 1316.7418273411636 449.31137009703036Q1310.6540760549588 442.07188208100274 1310.6540760549588 428.77206508186123L1310.6540760549588 428.77206508186123L1310.6540760549588 364.08285209016015L1291.6778423159772 364.08285209016015L1291.6778423159772 350.2894336353803L1310.6540760549588 350.2894336353803L1310.6540760549588 325.0334924885568Z " fill="#f4a896" transform="matrix(0.6488969753412879,0,0,0.648896975341288,0,52.43057498286588)"/></g></svg>